<?xml version="1.0" encoding="UTF-8"?>
<!DOCTYPE svg PUBLIC "-//W3C//DTD SVG 1.1//EN" "http://www.w3.org/Graphics/SVG/1.1/DTD/svg11.dtd">
<!-- Creator: CorelDRAW -->
<svg xmlns="http://www.w3.org/2000/svg" xml:space="preserve" width="1.295in" height="1.295in" version="1.1" style="shape-rendering:geometricPrecision; text-rendering:geometricPrecision; image-rendering:optimizeQuality; fill-rule:evenodd; clip-rule:evenodd"
viewBox="0 0 270.27 270.27"
 xmlns:xlink="http://www.w3.org/1999/xlink"
 xmlns:xodm="http://www.corel.com/coreldraw/odm/2003">
 <defs>
  <style type="text/css">
   <![CDATA[
    .fil0 {fill:#4D50E7}
   ]]>
  </style>
 </defs>
 <g id="Layer_x0020_1">
  <metadata id="CorelCorpID_0Corel-Layer"/>
  <path class="fil0" d="M66.04 0l138.19 0c36.32,0 66.04,29.72 66.04,66.04l0 138.19c0,36.32 -29.72,66.04 -66.04,66.04l-138.19 0c-36.32,0 -66.04,-29.72 -66.04,-66.04l0 -138.19c0,-36.32 29.72,-66.04 66.04,-66.04zm129.73 168.68c-15.11,-21.27 -8.75,-10.66 -22.88,-29.17 -9,2.54 -20.35,10.42 -27.99,15.33 -8.14,5.24 -16.58,13.36 -27.99,12.51 -2.21,-13.01 -3.66,-55.56 0.1,-66.42 12.41,-1.8 19.54,6.37 28.17,11.67 8.56,5.26 18.15,12.41 27.37,15.7 5.58,-10.07 15.3,-18.35 22.61,-27.41 -12.04,-18.51 -38.89,-39.15 -73.48,-28.67 -49.96,15.14 -58.54,74.27 -33.74,103.24 3.84,4.49 8.87,8.55 13.66,12.83 18.58,16.6 56.48,18.39 81.31,-4.48 4.09,-3.76 10.31,-9.24 12.87,-15.14z"/>
 </g>
</svg>
